<?xml version="1.0" encoding="UTF-8" standalone="no"?>
<!-- Created with Inkscape (http://www.inkscape.org/) -->

<svg
   xmlns:dc="http://purl.org/dc/elements/1.1/"
   xmlns:cc="http://creativecommons.org/ns#"
   xmlns:rdf="http://www.w3.org/1999/02/22-rdf-syntax-ns#"
   xmlns:svg="http://www.w3.org/2000/svg"
   xmlns="http://www.w3.org/2000/svg"
   xmlns:xlink="http://www.w3.org/1999/xlink"
   xmlns:sodipodi="http://sodipodi.sourceforge.net/DTD/sodipodi-0.dtd"
   xmlns:inkscape="http://www.inkscape.org/namespaces/inkscape"
   inkscape:version="0.92.1 r15371"
   sodipodi:docname="logo.svg"
   viewBox="0 0 105 145"
   height="145"
   width="105"
   id="svg4485"
   version="1.1"
   inkscape:export-filename="D:\Dev\astrosports\resources\assets\sass\images\logo.png"
   inkscape:export-xdpi="96"
   inkscape:export-ydpi="96">
  <metadata
     id="metadata4491">
    <rdf:RDF>
      <cc:Work
         rdf:about="">
        <dc:format>image/svg+xml</dc:format>
        <dc:type
           rdf:resource="http://purl.org/dc/dcmitype/StillImage" />
        <dc:title />
      </cc:Work>
    </rdf:RDF>
  </metadata>
  <defs
     id="defs4489">
    <filter
       inkscape:collect="always"
       style="color-interpolation-filters:sRGB"
       id="filter5406"
       x="-0.061884727"
       width="1.1237695"
       y="-0.20251234"
       height="1.4050246">
      <feGaussianBlur
         inkscape:collect="always"
         stdDeviation="2.5989749"
         id="feGaussianBlur5408" />
    </filter>
  </defs>
  <sodipodi:namedview
     inkscape:current-layer="layer3"
     inkscape:window-maximized="1"
     inkscape:window-y="-8"
     inkscape:window-x="-8"
     inkscape:cy="97.673701"
     inkscape:cx="65.232179"
     inkscape:zoom="7.9999999"
     inkscape:guide-bbox="true"
     showguides="true"
     showgrid="false"
     id="namedview4487"
     inkscape:window-height="705"
     inkscape:window-width="1360"
     inkscape:pageshadow="2"
     inkscape:pageopacity="0"
     guidetolerance="10"
     gridtolerance="10"
     objecttolerance="10"
     borderopacity="1"
     bordercolor="#666666"
     pagecolor="#ffffff">
    <sodipodi:guide
       position="5,51.17685"
       orientation="1,0"
       id="guide4514"
       inkscape:locked="false" />
    <sodipodi:guide
       position="98.628906,157"
       orientation="1,0"
       id="guide4516"
       inkscape:locked="false" />
    <sodipodi:guide
       position="54.53561,51.176853"
       orientation="0,1"
       id="guide4518"
       inkscape:locked="false" />
    <sodipodi:guide
       position="26.825863,14.992873"
       orientation="0,1"
       id="guide4520"
       inkscape:locked="false" />
    <sodipodi:guide
       position="9.0039063,165.87109"
       orientation="1,0"
       id="guide4538"
       inkscape:locked="false" />
    <sodipodi:guide
       position="96.003906,166.97656"
       orientation="1,0"
       id="guide4540"
       inkscape:locked="false" />
    <sodipodi:guide
       position="5.5664063,157"
       orientation="0,1"
       id="guide4542"
       inkscape:locked="false" />
    <sodipodi:guide
       position="15.390625,18.984375"
       orientation="0,1"
       id="guide4544"
       inkscape:locked="false" />
    <sodipodi:guide
       position="33.497837,98.899966"
       orientation="1,0"
       id="guide4565"
       inkscape:locked="false" />
    <sodipodi:guide
       position="40.404025,156.96501"
       orientation="1,0"
       id="guide4567"
       inkscape:locked="false" />
    <sodipodi:guide
       position="63.705902,103.83421"
       orientation="1,0"
       id="guide4569"
       inkscape:locked="false" />
    <sodipodi:guide
       position="73.398438,175.76953"
       orientation="1,0"
       id="guide4571"
       inkscape:locked="false" />
    <sodipodi:guide
       position="59.220193,149.02275"
       orientation="0,1"
       id="guide4573"
       inkscape:locked="false" />
    <sodipodi:guide
       position="53.375001,91.937501"
       orientation="0,1"
       id="guide4575"
       inkscape:locked="false" />
    <sodipodi:guide
       position="13.611805,149.02275"
       orientation="1,0"
       id="guide4577"
       inkscape:locked="false" />
    <sodipodi:guide
       position="93.868425,149.02275"
       orientation="1,0"
       id="guide4579"
       inkscape:locked="false" />
    <sodipodi:guide
       position="45.625,146.625"
       orientation="0,1"
       id="guide4972"
       inkscape:locked="false" />
    <sodipodi:guide
       position="55.25,127.875"
       orientation="0,1"
       inkscape:locked="false"
       id="guide4974" />
    <sodipodi:guide
       position="17.8125,141.5625"
       orientation="1,0"
       id="guide4979"
       inkscape:locked="false" />
    <sodipodi:guide
       position="20.9375,142.1875"
       orientation="1,0"
       id="guide4981"
       inkscape:locked="false" />
    <sodipodi:guide
       position="29.874995,133.125"
       orientation="0,1"
       id="guide4993"
       inkscape:locked="false" />
    <sodipodi:guide
       position="41.5625,134.1875"
       orientation="1,0"
       id="guide4995"
       inkscape:locked="false" />
    <sodipodi:guide
       position="102.60547,160.94531"
       orientation="1,0"
       id="guide4574"
       inkscape:locked="false" />
    <sodipodi:guide
       position="30.25,41.75"
       orientation="0,1"
       id="guide4731"
       inkscape:locked="false" />
  </sodipodi:namedview>
  <g
     inkscape:groupmode="layer"
     id="layer2"
     inkscape:label="Layer 2"
     style="display:inline"
     transform="translate(0,-15)"
     sodipodi:insensitive="true">
    <path
       style="fill:#018e47;fill-opacity:1;stroke:none;stroke-width:0.85113955px;stroke-linecap:butt;stroke-linejoin:miter;stroke-opacity:1"
       d="m 11.428733,15.060607 v 91.328173 c -0.212785,10.16379 14.085956,34.61965 42.876156,34.60635 28.790199,-0.0133 40.05945,-27.99111 40.199721,-34.60635 V 14.998055 Z"
       id="path4512"
       inkscape:connector-curvature="0"
       sodipodi:nodetypes="cczccc" />
  </g>
  <g
     inkscape:groupmode="layer"
     id="layer3"
     inkscape:label="Layer 3"
     style="display:inline"
     transform="translate(0,-15)">
    <path
       style="fill:#413e42;fill-opacity:1;stroke:none;stroke-width:0.85113955px;stroke-linecap:butt;stroke-linejoin:miter;stroke-opacity:1"
       d="m 14.836616,17.595218 -0.300924,86.759362 c -0.04484,12.92673 14.003015,32.24071 38.63379,33.30463 23.01343,0.99407 37.649594,-22.97294 37.649594,-33.30388 l 0.300923,-86.760112 h -4.051224 v 6.789167 H 63.694022 l -0.0033,-6.789167 h -22.12799 l -2.31e-4,6.789753 -22.804325,-5.86e-4 0.01164,-6.789167 z m 3.92156,37.784278 22.817493,0 -0.01317,12.683003 22.143402,0 0.01285,-12.683003 23.350024,0 V 90.362662 L 18.758176,89.835687 Z"
       id="path4512-5"
       inkscape:connector-curvature="0"
       sodipodi:nodetypes="csscccccccccccccccccccc" />
  </g>
  <g
     inkscape:groupmode="layer"
     id="layer5"
     inkscape:label="Layer 5"
     style="display:inline"
     transform="translate(0,-15)"
     sodipodi:insensitive="true">
    <path
       style="fill:#ffffff;stroke:none;stroke-width:0.85113955px;stroke-linecap:butt;stroke-linejoin:miter;stroke-opacity:1"
       d="m 69.64535,24.384971 v -6.789753 h -5.954653 c 0,0 -0.01034,2.756556 0,6.789753 m 0,30.995097 c 0,0 0.02772,8.436327 0,9.150054 -3.456773,-1.181771 -7.047276,-1.990096 -11.053145,-1.99786 -3.665127,-0.0071 -7.950666,0.918134 -11.075052,1.852223 v -9.004417 l -5.877194,-7e-6 c -4.94e-4,6.450103 -9.36e-4,11.243386 -9.36e-4,11.666393 -9.821526,5.784194 -17.439449,16.69118 -18.045235,29.526251 -1.082887,18.166155 13.511273,37.740755 36.650106,37.740755 20.518661,-1.27124 33.994671,-18.7107 33.958162,-36.586475 -0.755327,-14.011946 -8.593067,-23.861141 -18.622241,-30.71207 0.0057,-1.413036 0.01352,-5.749903 0.02019,-11.634847 z M 41.5625,24.384971 V 17.625 c 0,0 -5.714134,-0.02978 -5.87813,-0.02978 0.0011,0.206541 0.0017,2.846315 0.002,6.809116"
       id="path4547-0"
       inkscape:connector-curvature="0"
       sodipodi:nodetypes="ccccccscccccccccccccc" />
  </g>
  <g
     inkscape:groupmode="layer"
     id="layer4"
     inkscape:label="Layer 4"
     style="display:inline"
     transform="translate(0,-15)"
     sodipodi:insensitive="true">
    <path
       style="fill:#413d44;fill-opacity:1;stroke:none;stroke-width:0.85113955px;stroke-linecap:butt;stroke-linejoin:miter;stroke-opacity:1"
       d="M 52.070647,64.833462 C 32.892195,64.897532 19.501946,83.255125 19.727343,98.879045 19.95274,114.50297 33.41855,131.29746 52.921786,131.8607 72.425022,132.42394 86.241498,114.06426 86.11623,98.240695 85.990961,82.417121 71.249099,64.769396 52.070647,64.833462 Z"
       id="path4547"
       inkscape:connector-curvature="0"
       sodipodi:nodetypes="zzzzz" />
  </g>
  <g
     style="display:inline"
     inkscape:label="7"
     id="g4947"
     inkscape:groupmode="layer"
     transform="translate(0,-15)"
     sodipodi:insensitive="true">
    <path
       style="fill:#feca01;fill-opacity:1;stroke:none;stroke-width:0.85113955px;stroke-linecap:butt;stroke-linejoin:miter;stroke-opacity:1"
       d="m 60.641887,66.010428 -9.528771,7.653607 c 0,0 -9.25087,-6.769286 -9.472254,-6.917171 -7.53207,2.881822 -13.626342,8.7391 -17.466646,15.574856 1.570583,4.436224 2.396261,6.632648 3.745347,11.131315 l -8.170607,5.40107 c 0.104056,7.985245 3.661902,16.270045 9.699998,22.541895 l 8.790676,-0.49372 2.826049,8.44988 c 3.620978,1.48794 7.594588,2.38547 11.856107,2.50854 5.797125,0.16742 11.091319,-1.33705 15.666289,-3.9199 l 1.509443,-9.11982 9.286065,-0.70319 c 4.333343,-6.00552 6.785748,-13.16937 6.732647,-19.877095 -0.01,-1.26064 -0.112454,-2.5329 -0.325828,-3.81683 l -6.536485,-3.52425 3.048807,-6.972033 C 77.916546,75.70384 70.146849,68.685635 60.641887,66.010428 Z m -8.330195,16.226511 17.333658,11.887266 -4.920651,19.033015 -20.763151,3e-5 -6.772383,-18.581295 z"
       id="path4951"
       inkscape:connector-curvature="0"
       sodipodi:nodetypes="cccccccccccccscccccccccc" />
  </g>
  <g
     inkscape:groupmode="layer"
     id="layer6"
     inkscape:label="Layer 6"
     style="display:inline;opacity:1"
     transform="translate(0,-15)"
     sodipodi:insensitive="true">
    <path
       style="opacity:1;fill:#ffffff;stroke:none;stroke-width:0.85113955px;stroke-linecap:butt;stroke-linejoin:miter;stroke-opacity:1"
       d="m 41.5625,86.963091 c -1.071031,0.614796 -2.98259,0.472281 -0.610827,-2.619162 0.90909,-1.010979 1.792629,-3.833184 3.245933,-5.466664 l 5.106837,-2.340634 4.468483,0.42557 0.85114,-1.489494 c 0.425569,-1.560422 -0.959559,-3.237029 1.276709,-4.681268 1.656942,-0.29774 4.225895,-0.193021 3.771308,3.229389 -0.562526,2.292923 -1.041668,2.25244 -1.805722,3.629143 0.667034,0.08252 1.732197,0.651942 2.276583,0.941331 0.87909,0.614393 1.643055,4.512797 3.188678,6.576416 0.488731,1.205291 -0.884914,1.470598 -2.105243,1.922137 0.313601,0.925962 -0.02902,1.971465 -0.150461,2.031231 -0.10941,0.03 -0.46804,-1.32104 -2.329678,-0.805309 -0.333821,0.129558 -0.770806,0.665762 -0.891754,0.588157 -0.04525,-0.246862 0.270869,-0.766354 0.61795,-1.179454 0.240849,-0.286663 0.595406,-0.564854 0.820049,-0.879458 0.351984,-0.492944 0.431253,-1.147084 0.880662,-1.523092 l -1.504615,-2.821155 c -0.597505,1.080242 -1.463721,1.730542 -2.21931,2.557847 -0.29334,0.814852 0.392887,3.674533 0.150461,5.49185 -1.355652,0.288203 -2.870439,0.816313 -3.987233,1.542233 -0.91561,-0.31718 -1.597681,-0.99763 -2.294541,-1.655079 0.633061,0.732509 1.09768,1.432819 2.078252,2.021829 0.09939,0.47449 0.56526,1.38622 0.705289,2.05944 -0.03187,-0.44837 -0.280384,-1.25756 -0.338538,-2.16288 0.931063,-0.43885 2.328093,-1.30866 3.750719,-1.31654 -0.362585,2.17272 -1.655239,4.8654 -2.338804,5.84502 0.512686,1.50775 0.68201,1.35833 1.033087,3.06983 0.884499,1.399585 2.996694,6.795855 4.890002,9.403855 0.668514,0.24543 2.49484,-0.2677 3.592781,-0.0752 0.773188,0.88688 -3.767575,3.0657 -5.605204,3.40419 -0.567819,0.14034 -0.193046,-1.26486 -0.117992,-2.15466 -1.182413,-2.21232 -4.843991,-4.34264 -5.136595,-6.13954 -0.14616,-1.19913 -0.05201,-2.82348 3.91e-4,-3.96976 0.372352,0.11965 0.664909,0.20129 0.997363,0.26598 -0.788027,-0.31529 -0.639116,-0.17811 -1.367461,-0.59314 -0.464135,1.02892 -1.083901,2.46097 -1.462821,3.10803 -0.701284,1.04659 -5.079109,1.04433 -7.917893,1.36701 -0.710458,0.99059 -0.466729,2.83431 -1.517986,3.09444 -0.993077,0 -0.693565,-3.38768 -0.346016,-5.35924 0.273536,-0.75226 0.58715,-0.89743 1.118978,-1.0484 0.479445,0.18504 0.644695,0.55834 0.94451,0.83957 1.093229,0.52262 4.005146,-1.33612 5.809014,-0.98247 -0.06464,-1.154385 -0.580563,-2.479845 -0.706463,-3.861475 l 1.773061,1.09361 -3.176852,-2.07595 -0.852762,-2.47233 2.486923,-1.4097 -2.659811,1.01073 c 0.02955,-1.63726 0.491897,-3.719471 0.797943,-4.761063 l 2.319707,0.822881 -2.186716,-1.434638 1.675681,-1.675681 0.691551,2.207644 -0.345776,-2.526821 c -0.117484,-1.781233 -0.44899,-3.568036 0.0798,-6.011173 l -2.766204,0.398972 c -0.846805,1.689749 -2.411393,2.518156 -3.617343,3.776931 -0.22694,0.510443 0.241773,0.96769 0.04505,1.451535 -0.299027,0.337628 -0.312648,0.03252 -0.516818,-0.0409 -0.202788,0.372007 -0.175566,0.813377 -0.567453,1.355567 z"
       id="path4586"
       inkscape:connector-curvature="0"
       sodipodi:nodetypes="cccccccccccccccssccccccccccccccccccccccccccccccccccccccccccccc" />
    <path
       style="fill:#ffffff;stroke:none;stroke-width:0.85113955px;stroke-linecap:butt;stroke-linejoin:miter;stroke-opacity:1"
       d="m 62.417312,103.40073 -0.239382,1.86187 1.512767,0.74474 1.266734,-1.18361 -0.731448,-1.54269 z"
       id="path4912"
       inkscape:connector-curvature="0"
       sodipodi:nodetypes="cccccc" />
    <path
       style="fill:#ffffff;stroke:none;stroke-width:0.85113955px;stroke-linecap:butt;stroke-linejoin:miter;stroke-opacity:1"
       d="m 60.701735,103.12144 c 0.443373,-0.0317 0.865454,-0.0692 1.329904,-0.0931 0.03162,-0.45099 0.108159,-0.81215 0.172888,-1.19692 -0.618839,0.33736 -1.132077,0.75769 -1.502792,1.29 z"
       id="path4914"
       inkscape:connector-curvature="0"
       sodipodi:nodetypes="cccc" />
    <path
       style="fill:#ffffff;stroke:none;stroke-width:0.85113955px;stroke-linecap:butt;stroke-linejoin:miter;stroke-opacity:1"
       d="m 60.457949,105.32625 c 0.15718,0.63484 0.534561,1.15012 1.161191,1.68509 0.08713,-0.57554 0.10851,-0.96712 0.182013,-1.52217 -0.547478,-0.0819 -0.828974,-0.10648 -1.343204,-0.16292 z"
       id="path4916"
       inkscape:connector-curvature="0"
       sodipodi:nodetypes="cccc" />
    <path
       style="fill:#ffffff;stroke:none;stroke-width:0.85113955px;stroke-linecap:butt;stroke-linejoin:miter;stroke-opacity:1"
       d="m 63.178684,107.66549 c 0.621563,0.10626 1.146689,-0.0787 1.571057,-0.27956 -0.449954,-0.142 -0.573532,-0.21444 -1.059044,-0.48557 -0.142354,0.29609 -0.337902,0.51238 -0.512013,0.76513 z"
       id="path4918"
       inkscape:connector-curvature="0"
       sodipodi:nodetypes="cccc" />
    <path
       style="fill:#ffffff;stroke:none;stroke-width:0.85113955px;stroke-linecap:butt;stroke-linejoin:miter;stroke-opacity:1"
       d="m 66.307287,103.62681 c -0.20109,0.40214 -0.374421,0.79039 -0.669989,1.23977 0.167302,0.30677 0.278228,0.65115 0.370759,1.00777 0.463665,-0.77344 0.422487,-1.55522 0.29923,-2.24754 z"
       id="path4920"
       inkscape:connector-curvature="0"
       sodipodi:nodetypes="cccc" />
    <path
       sodipodi:nodetypes="cccc"
       inkscape:connector-curvature="0"
       id="path4931"
       d="m 66.307287,103.62681 c -0.20109,0.40214 -0.374421,0.79039 -0.669989,1.23977 0.167302,0.30677 0.278228,0.65115 0.370759,1.00777 0.463665,-0.77344 0.422487,-1.55522 0.29923,-2.24754 z"
       style="fill:#ffffff;stroke:none;stroke-width:0.85113955px;stroke-linecap:butt;stroke-linejoin:miter;stroke-opacity:1" />
    <path
       style="opacity:1;fill:#ffffff;stroke:none;stroke-width:0.85113955px;stroke-linecap:butt;stroke-linejoin:miter;stroke-opacity:1"
       d="m 64.007278,101.65285 c 0.248936,0.23299 0.34601,0.40377 0.640775,0.91964 0.247097,-0.0855 0.81684,-0.0903 1.195301,-0.0661 -0.289956,-0.54366 -1.101061,-0.9392 -1.836076,-0.85352 z"
       id="path4920-9"
       inkscape:connector-curvature="0"
       sodipodi:nodetypes="cccc" />
    <path
       style="fill:#ffffff;fill-opacity:1;stroke:none;stroke-width:0.85113955px;stroke-linecap:butt;stroke-linejoin:miter;stroke-opacity:1"
       d="m 39.823211,74.639154 0.82754,6.733158 2.821154,-6.168927 -5.529465,3.347771 6.255166,0.326109 z"
       id="path4939"
       inkscape:connector-curvature="0" />
    <path
       style="fill:#ffffff;fill-opacity:1;stroke:none;stroke-width:0.85113955px;stroke-linecap:butt;stroke-linejoin:miter;stroke-opacity:1"
       d="m 32.243705,77.460309 0.65827,4.137695 1.711501,-4.306964 -3.535849,2.256925 4.606743,-0.188077 z"
       id="path4941"
       inkscape:connector-curvature="0" />
    <path
       style="fill:#ffffff;fill-opacity:1;stroke:none;stroke-width:0.85113955px;stroke-linecap:butt;stroke-linejoin:miter;stroke-opacity:1"
       d="m 37.980055,69.372996 0.225693,3.046849 1.80554,-2.670694 -2.971618,1.241308 3.159695,0.300923 z"
       id="path4943"
       inkscape:connector-curvature="0" />
  </g>
  <g
     inkscape:groupmode="layer"
     id="layer7"
     inkscape:label="Layer 7"
     style="display:inline"
     transform="translate(0,-15)"
     sodipodi:insensitive="true">
    <text
       xml:space="preserve"
       style="font-style:normal;font-variant:normal;font-weight:bold;font-stretch:normal;font-size:40px;line-height:1.25;font-family:sans-serif;-inkscape-font-specification:'sans-serif Bold';letter-spacing:0px;word-spacing:0px;fill:#000000;fill-opacity:1;stroke:none"
       x="50.027805"
       y="-6.7004232"
       id="text4987"><tspan
         sodipodi:role="line"
         id="tspan4985"
         x="50.027805"
         y="29.792789" /></text>
    <text
       xml:space="preserve"
       style="font-style:normal;font-variant:normal;font-weight:normal;font-stretch:normal;font-size:40px;line-height:1.25;font-family:Optien;-inkscape-font-specification:Optien;letter-spacing:0px;word-spacing:0px;fill:#000000;fill-opacity:1;stroke:none"
       x="15.644737"
       y="23.086451"
       id="text4999"><tspan
         sodipodi:role="line"
         x="15.644737"
         y="58.086449"
         id="tspan5001" /></text>
    <text
       xml:space="preserve"
       style="font-style:normal;font-variant:normal;font-weight:normal;font-stretch:normal;font-size:34.04558182px;line-height:1.25;font-family:Optien;-inkscape-font-specification:Optien;text-align:center;letter-spacing:0px;word-spacing:0px;text-anchor:middle;fill:#000000;fill-opacity:1;stroke:none;stroke-width:0.85113955"
       x="53.678932"
       y="41.489449"
       id="text4547"><tspan
         sodipodi:role="line"
         x="54.530075"
         y="41.489449"
         style="font-style:normal;font-variant:normal;font-weight:900;font-stretch:normal;font-size:22.69705391px;font-family:Optien;-inkscape-font-specification:'Optien Heavy';text-align:center;letter-spacing:1.70227909px;word-spacing:0px;text-anchor:middle;fill:#ffffff;stroke-width:0.85113955"
         id="tspan4561">ASTRO</tspan></text>
    <text
       xml:space="preserve"
       style="font-style:normal;font-variant:normal;font-weight:normal;font-stretch:normal;font-size:11.34852695px;line-height:1.25;font-family:Optien;-inkscape-font-specification:Optien;text-align:center;letter-spacing:0px;word-spacing:0px;text-anchor:middle;fill:#000000;fill-opacity:1;stroke:none;stroke-width:0.85113955"
       x="52.717247"
       y="53.03146"
       id="text4571"><tspan
         sodipodi:role="line"
         id="tspan4569"
         x="53.568386"
         y="53.03146"
         style="font-style:normal;font-variant:normal;font-weight:900;font-stretch:normal;font-size:13.61823273px;font-family:Optien;-inkscape-font-specification:'Optien Heavy';letter-spacing:1.70227909px;fill:#ffffff;stroke-width:0.85113955">SPORTS</tspan></text>
  </g>
  <g
     inkscape:groupmode="layer"
     id="layer8"
     inkscape:label="Layer 8"
     style="display:inline"
     transform="translate(0,-15)"
     sodipodi:insensitive="true">
    <text
       xml:space="preserve"
       style="font-style:normal;font-variant:normal;font-weight:bold;font-stretch:normal;font-size:12px;line-height:1.25;font-family:Arial;-inkscape-font-specification:'Arial Bold';text-align:center;letter-spacing:0px;word-spacing:0px;text-anchor:middle;display:inline;fill:#000000;fill-opacity:1;stroke:none;stroke-opacity:1;filter:url(#filter5406)"
       id="text4578"><textPath
         xlink:href="#path4733"
         startOffset="50%"
         id="textPath4735"
         style="font-style:normal;font-variant:normal;font-weight:bold;font-stretch:normal;font-size:12px;font-family:Arial;-inkscape-font-specification:'Arial Bold';text-align:center;writing-mode:lr-tb;text-anchor:middle;fill:#000000;stroke:none;stroke-opacity:1">Descobrindo Valores</textPath></text>
    <path
       style="fill:none;stroke:none;stroke-width:0.85113955px;stroke-linecap:butt;stroke-linejoin:miter;stroke-opacity:1"
       d="m 7.173035,115.68905 c -3.7687807,11.22772 15.160923,33.32099 48.090043,33.84908 21.981848,0.35252 41.932528,-14.47236 43.194674,-33.84908"
       id="path4733"
       inkscape:connector-curvature="0"
       sodipodi:nodetypes="csc" />
  </g>
  <g
     style="display:inline"
     inkscape:label="Layer 8 copiar"
     id="g5324"
     inkscape:groupmode="layer"
     transform="translate(0,-15)"
     sodipodi:insensitive="true">
    <text
       id="text5320"
       style="font-style:normal;font-variant:normal;font-weight:bold;font-stretch:normal;font-size:12px;line-height:1.25;font-family:Arial;-inkscape-font-specification:'Arial Bold';text-align:center;letter-spacing:0px;word-spacing:0px;text-anchor:middle;display:inline;fill:#000000;fill-opacity:1;stroke:none;stroke-opacity:1"
       xml:space="preserve"><textPath
         style="font-style:normal;font-variant:normal;font-weight:bold;font-stretch:normal;font-size:12px;font-family:Arial;-inkscape-font-specification:'Arial Bold';text-align:center;writing-mode:lr-tb;text-anchor:middle;fill:#ffffff;stroke:none;stroke-opacity:1"
         id="textPath5318"
         startOffset="50%"
         xlink:href="#path4733">Descobrindo Valores</textPath></text>
    <path
       sodipodi:nodetypes="csc"
       inkscape:connector-curvature="0"
       id="path5322"
       d="m 7.173035,115.68905 c -3.7687807,11.22772 15.160923,33.32099 48.090043,33.84908 21.981848,0.35252 41.932528,-14.47236 43.194674,-33.84908"
       style="fill:none;stroke:none;stroke-width:0.85113955px;stroke-linecap:butt;stroke-linejoin:miter;stroke-opacity:1" />
  </g>
</svg>
